<?xml version="1.0" encoding="UTF-8"?><svg id="_이어_2" xmlns="http://www.w3.org/2000/svg" viewBox="0 0 17.5 21.5"><defs><style>.cls-1{fill:#fff;}</style></defs><g id="_이어_1-2"><path class="cls-1" d="M8.75,3.75l.53-.53c-.29-.29-.77-.29-1.06,0l.53,.53Zm0,8l-.53,.53c.29,.29,.77,.29,1.06,0l-.53-.53Zm-2.53-6.53c-.29,.29-.29,.77,0,1.06,.29,.29,.77,.29,1.06,0l-1.06-1.06Zm4,1.06c.29,.29,.77,.29,1.06,0,.29-.29,.29-.77,0-1.06l-1.06,1.06Zm-2.94,2.94c-.29-.29-.77-.29-1.06,0-.29,.29-.29,.77,0,1.06l1.06-1.06Zm4,1.06c.29-.29,.29-.77,0-1.06s-.77-.29-1.06,0l1.06,1.06ZM0,8.75v4H1.5v-4H0Zm17.5,4v-4h-1.5v4h1.5ZM8,3.75V11.75h1.5V3.75h-1.5Zm.22-.53l-2,2,1.06,1.06,2-2-1.06-1.06Zm0,1.06l2,2,1.06-1.06-2-2-1.06,1.06Zm1.06,6.94l-2-2-1.06,1.06,2,2,1.06-1.06Zm0,1.06l2-2-1.06-1.06-2,2,1.06,1.06Zm8.22-3.53C17.5,3.92,13.58,0,8.75,0V1.5c4,0,7.25,3.25,7.25,7.25h1.5Zm-8.75,12.75c4.83,0,8.75-3.92,8.75-8.75h-1.5c0,4-3.25,7.25-7.25,7.25v1.5ZM0,12.75c0,4.83,3.92,8.75,8.75,8.75v-1.5c-4,0-7.25-3.25-7.25-7.25H0Zm1.5-4C1.5,4.75,4.75,1.5,8.75,1.5V0C3.92,0,0,3.92,0,8.75H1.5Z"/></g></svg>